# xmcd
#
# Track frame offsets:
#	150
#	18904
#	35662
#	54450
#	72405
#	89715
#	109299
#	127455
#	144380
#	161813
#	176180
#	192684
#	197495
#	213054
#
# Disc length: 3080 seconds
#
# Revision: 0
# Processed by: cddbd v1.5.2PL0 Copyright (c) Steve Scherf et al.
# Submitted via: EZCDAudioConverter 1.0.6.1
#
DISCID=dd0c060e
DTITLE=Brian Jack and the Zydeco Gamblers - You Don't Know Jack
DYEAR=2010
DGENRE=
TTITLE0=Gotta be me
TTITLE1=Freaky
TTITLE2=When you come around 
TTITLE3=Temperature rising 
TTITLE4=Ride my horse 
TTITLE5=Lifetime 
TTITLE6=Baby don't go
TTITLE7=Nobody else but you
TTITLE8=She wants my lovin'
TTITLE9=Heaven 
TTITLE10=What am I gonna do
TTITLE11=Better place interlude
TTITLE12=Better place
TTITLE13=Stay (featuring Clay "G")
EXTD=
EXTT0=
EXTT1=
EXTT2=
EXTT3=
EXTT4=
EXTT5=
EXTT6=
EXTT7=
EXTT8=
EXTT9=
EXTT10=
EXTT11=
EXTT12=
EXTT13=
PLAYORDER=
